<?xml version="1.0" encoding="UTF-8"?>
<svg id="_Слой_2" data-name="Слой 2" xmlns="http://www.w3.org/2000/svg" viewBox="0 0 240.11 212.32">
  <defs>
    <style>
      .cls-1 {
        fill: #1d1d1b;
      }
    </style>
  </defs>
  <g id="_Слой_1-2" data-name="Слой 1">
    <path class="cls-1" d="m21.89,13.12l98.87.16s12.26-.26,12.04,12.43-12.04,13.45-12.04,13.45H27.06l-.3,119.87h94s11.9.04,12.05,12.23,0,31.85,0,31.85c0,0-1.92,8.98-9.07,8.98h-47.66s-10.38-2.89-10.38-12.26,8.81-13.7,8.81-13.7l-52.62.04S0,180.43,0,163.4V34.72S1.83,14.15,21.89,13.12Z"/>
    <path class="cls-1" d="m181.02,0h38.21s20.17,3.49,20.6,23.66.25,168.98.25,168.98c0,0-7.22,19.53-22.8,19.66s-36.26-.32-36.26-.32c0,0-21.19-3.38-21.19-22.66V22.72S164.43,1.79,181.02,0Z"/>
  </g>
</svg>